<svg xmlns="http://www.w3.org/2000/svg" viewBox="0 0 500 500" fill-rule="evenodd" clip-rule="evenodd" stroke-linejoin="round" stroke-miterlimit="1.414"><circle cx="262.94" cy="2583.52" r="44.556" fill="#fedf01" transform="translate(-1207.4 -14071.6) scale(5.54354)"/><path d="M163.271 140.396h109.26l64.647 64.648V360.1H163.271V140.396z" fill="#ffdf01"/><path d="M337.178 205.044V360.1H163.271V140.396h109.26c21.53 21.586 43.116 43.117 64.647 64.648zm-160.175-50.917v192.241h146.444V210.756l-56.574-56.629h-89.87z" fill-rule="nonzero"/><path d="M272.564 151.204v52.767h52.777l-52.777-52.767z" fill="#ffdf01"/><path d="M336.064 205.009l-2.42 5.844h-67.946v-67.951l5.85-2.404c21.505 21.467 43.01 42.989 64.516 64.51zm-56.634-7.92h29.333l-29.333-29.334v29.333zm-38.46 58.218l-26.685 24.336 26.694 24.44-9.272 10.123-37.779-34.578 37.79-34.46 9.251 10.14zm65.537 24.463l-37.79 34.46-9.251-10.139 26.684-24.336-26.694-24.44 9.272-10.123 37.779 34.578z" fill-rule="nonzero"/></svg>