<?xml version="1.0" encoding="UTF-8" standalone="no"?>
<!DOCTYPE svg PUBLIC "-//W3C//DTD SVG 1.1//EN" "http://www.w3.org/Graphics/SVG/1.1/DTD/svg11.dtd">
<svg xmlns="http://www.w3.org/2000/svg" xmlns:xlink="http://www.w3.org/1999/xlink" width="100%" height="100%" viewBox="0 0 500 500" version="1.1" xml:space="preserve" style="fill-rule:evenodd;clip-rule:evenodd;stroke-linejoin:round;stroke-miterlimit:1.41421;">
    <g>
        <g transform="matrix(5.54354,0,0,5.54354,-1207.4,-14071.6)">
            <circle cx="262.94" cy="2583.52" r="44.556" style="fill:rgb(254,223,1);"/>
        </g>
        <g transform="matrix(5.49261,0,0,5.49261,-4804.81,-13103.1)">
            <g transform="matrix(1,0,0,1,-81.4052,61.198)">
                <path d="M985.908,2349.95L1005.8,2349.95L1017.57,2361.72L1017.57,2389.95L985.908,2389.95L985.908,2349.95Z" style="fill:rgb(255,223,1);"/>
            </g>
            <g transform="matrix(1,0,0,1,-81.4052,61.198)">
                <path d="M1017.57,2361.72L1017.57,2389.95L985.908,2389.95L985.908,2349.95L1005.8,2349.95C1009.72,2353.88 1013.65,2357.8 1017.57,2361.72ZM988.408,2352.45L988.408,2387.45L1015.07,2387.45L1015.07,2362.76L1004.77,2352.45C999.314,2352.45 993.861,2352.45 988.408,2352.45Z" style="fill-rule:nonzero;"/>
            </g>
            <g transform="matrix(-0.994491,-2.30853e-16,-1.92378e-16,0.994491,1841.63,1.06746)">
                <path d="M922.31,2425.41L922.31,2435.07L912.648,2435.07L922.31,2425.41Z" style="fill:rgb(255,223,1);"/>
            </g>
            <g transform="matrix(-0.994491,-2.30853e-16,-1.92378e-16,0.994491,1841.63,1.06746)">
                <path d="M910.685,2435.26L911.128,2436.33L923.567,2436.33L923.567,2423.89L922.496,2423.45C918.559,2427.38 914.622,2431.32 910.685,2435.26ZM921.053,2433.81L915.683,2433.81L921.053,2428.44C921.053,2430.23 921.053,2432.02 921.053,2433.81Z" style="fill-rule:nonzero;"/>
            </g>
            <g transform="matrix(0.268688,0,0,0.268688,652.905,1799.72)">
                <path d="M989.042,2353.47L970.961,2369.96L989.049,2386.52L982.766,2393.38L957.167,2369.95L982.773,2346.6C984.863,2348.89 986.953,2351.18 989.042,2353.47Z" style="fill-rule:nonzero;"/>
            </g>
            <g transform="matrix(-0.268688,-3.29048e-17,3.29048e-17,-0.268688,1187.76,3073.3)">
                <path d="M957.167,2369.95L982.773,2346.6L989.042,2353.47L970.961,2369.96L989.049,2386.52L982.766,2393.38C974.233,2385.57 965.7,2377.76 957.167,2369.95Z" style="fill-rule:nonzero;"/>
            </g>
        </g>
    </g>
</svg>
