<svg id="Capa_1" xmlns="http://www.w3.org/2000/svg" viewBox="0 0 792 612"><style>.st0{fill:none}</style><path d="M289.3 2542.7c6.9 0 13.5 1.3 19.8 4 6.1 2.6 11.5 6.2 16.2 10.9 4.7 4.7 8.4 10.1 10.9 16.2 2.7 6.3 4 12.9 4 19.8s-1.3 13.5-4 19.8c-2.6 6.1-6.2 11.5-10.9 16.2-4.7 4.7-10.1 8.4-16.2 10.9-6.3 2.7-12.9 4-19.8 4s-13.5-1.3-19.8-4c-6.1-2.6-11.5-6.2-16.2-10.9-4.7-4.7-8.4-10.1-10.9-16.2-2.7-6.3-4-12.9-4-19.8s1.3-13.5 4-19.8c2.6-6.1 6.2-11.5 10.9-16.2 4.7-4.7 10.1-8.4 16.2-10.9 6.2-2.7 12.9-4 19.8-4m0-3.6c-30.1 0-54.5 24.4-54.5 54.5s24.4 54.5 54.5 54.5 54.5-24.4 54.5-54.5-24.4-54.5-54.5-54.5z" transform="translate(-1207.4 -14071.6) scale(5.54354)"/><path class="st0" d="M1009 2355.7h24.3l14.4 14.4v34.6H1009v-49z" transform="translate(-5251.937 -12766.963) scale(5.49261)"/><path d="M1047.7 2370.1v34.6H1009v-49h24.3l14.4 14.4zm-35.7-11.4v42.8h32.6v-30.2l-12.6-12.6h-20z" transform="translate(-5251.937 -12766.963) scale(5.49261)"/><path class="st0" d="M894.7 2431.6v11.8h-11.8l11.8-11.8z" transform="matrix(-5.46235 0 0 5.46235 5310.545 -13097.237)"/><path d="M880.4 2443.7l.5 1.3h15.2v-15.2l-1.3-.5c-4.7 4.7-9.6 9.5-14.4 14.4zm12.7-1.8h-6.6l6.6-6.6v6.6z" transform="matrix(-5.46235 0 0 5.46235 5310.545 -13097.237)"/><path d="M1086.6 2392.2l-22.1 20.2 22.1 20.3-7.7 8.4-31.3-28.7 31.3-28.6c2.6 2.8 5.1 5.6 7.7 8.4z" transform="translate(-1218.657 -3217.94) scale(1.4758)"/><path d="M849.7 2327.5l31.3-28.6 7.7 8.4-22.1 20.2 22.1 20.3-7.7 8.4c-10.5-9.6-20.9-19.2-31.3-28.7z" transform="rotate(180 859.546 1888.669) scale(1.4758)"/></svg>