<?xml version="1.0" encoding="UTF-8" standalone="no"?>
<!DOCTYPE svg PUBLIC "-//W3C//DTD SVG 1.1//EN" "http://www.w3.org/Graphics/SVG/1.1/DTD/svg11.dtd">
<svg xmlns="http://www.w3.org/2000/svg" xmlns:xlink="http://www.w3.org/1999/xlink" width="100%" height="100%" viewBox="0 0 500 500" version="1.1" xml:space="preserve" style="fill-rule:evenodd;clip-rule:evenodd;stroke-linejoin:round;stroke-miterlimit:1.41421;">
    <g transform="matrix(5.49261,0,0,5.49261,-4798.23,-15630.3)">
        <g transform="matrix(1.00927,0,0,1.00927,653.716,283.739)">
            <circle cx="262.94" cy="2583.52" r="44.556" style="fill:rgb(254,223,1);"/>
        </g>
        <g transform="matrix(1.17521,0,0,1.17521,-213.131,-475.014)">
            <path d="M982.347,2876.49L969.319,2876.49L965.776,2884.55L962.234,2876.49L949.205,2876.49L949.205,2853.69L982.347,2853.69C982.347,2861.29 982.347,2868.89 982.347,2876.49ZM951.332,2855.82L951.332,2874.36L963.623,2874.36L965.776,2879.26L967.93,2874.36L980.22,2874.36L980.22,2855.82C970.591,2855.82 960.962,2855.82 951.332,2855.82Z" style="fill-rule:nonzero;"/>
        </g>
        <g transform="matrix(1.04172,0,0,1.04172,-100.589,-101.094)">
            <path d="M992.081,2855.44L992.081,2857.84L960.138,2857.84L960.138,2878.84L957.739,2878.84L957.739,2855.44C969.186,2855.44 980.633,2855.44 992.081,2855.44Z" style="fill-rule:nonzero;"/>
        </g>
    </g>
</svg>
