<svg xmlns="http://www.w3.org/2000/svg" viewBox="0 0 792 612"><path d="M395.948 23.65c38.15 0 75.09 7.469 109.91 22.204 33.609 14.23 63.786 34.618 89.724 60.556 25.938 25.938 46.326 56.116 60.556 89.724 14.736 34.72 22.204 71.76 22.204 109.809s-7.468 75.09-22.204 109.91c-14.23 33.608-34.618 63.785-60.556 89.724-25.938 25.938-56.115 46.325-89.724 60.556-34.82 14.735-71.76 22.204-109.91 22.204s-75.09-7.469-109.91-22.204c-33.608-14.231-63.785-34.618-89.723-60.556-25.938-25.939-46.326-56.116-60.556-89.725-14.736-34.82-22.204-71.759-22.204-109.91s7.468-75.089 22.204-109.909c14.23-33.608 34.618-63.785 60.556-89.724 25.938-25.938 56.115-46.325 89.724-60.556 34.82-14.634 71.86-22.103 109.91-22.103m0-19.983c-166.934 0-302.277 135.343-302.277 302.276s135.343 302.276 302.276 302.276 302.378-135.242 302.378-302.276S562.983 3.667 395.948 3.667z"/><path d="M545.467 401.81H442.52l-27.97 63.697-27.97-63.697H283.63V221.65h261.837v180.16zM300.436 238.574v146.43h97.072l17.04 38.665 17.041-38.664h97.073V238.574H300.436z"/><path d="M488.712 186.733v16.772H264.951v147.09h-16.772V186.734h240.533z"/></svg>