<?xml version="1.0" encoding="UTF-8" standalone="no"?>
<!DOCTYPE svg PUBLIC "-//W3C//DTD SVG 1.1//EN" "http://www.w3.org/Graphics/SVG/1.1/DTD/svg11.dtd">
<svg xmlns="http://www.w3.org/2000/svg" xmlns:xlink="http://www.w3.org/1999/xlink" width="100%" height="100%" viewBox="0 0 500 500" version="1.1" xml:space="preserve" style="fill-rule:evenodd;clip-rule:evenodd;stroke-linejoin:round;stroke-miterlimit:1.41421;">
    <g transform="matrix(5.49261,0,0,5.49261,-1123.15,-1123.15)">
        <g transform="matrix(1.00927,0,0,1.00927,-15.3784,-2357.48)">
            <circle cx="262.94" cy="2583.52" r="44.556" style="fill:rgb(254,223,1);"/>
        </g>
        <g transform="matrix(1.02713,0,0,1.02713,-692.358,-2388.94)">
            <g transform="matrix(1.01369,0,0,1.01369,-12.5575,-36.6525)">
                <path d="M917.679,2550.26C917.847,2550.26 918.015,2550.26 918.183,2550.27C918.488,2550.28 918.793,2550.31 919.097,2550.34C920.078,2550.45 921.047,2550.67 921.982,2550.99C923.386,2551.47 924.714,2552.17 925.9,2553.07C926.67,2553.64 927.381,2554.3 928.015,2555.03C928.703,2555.82 929.299,2556.68 929.782,2557.61C930.209,2558.43 930.547,2559.3 930.785,2560.19C930.985,2560.94 931.115,2561.71 931.17,2562.49C931.191,2562.77 931.202,2563.06 931.202,2563.34C931.202,2564.16 931.125,2564.97 930.97,2565.77C930.794,2566.67 930.521,2567.56 930.165,2568.41C929.849,2569.16 929.47,2569.88 929.044,2570.58C928.773,2571.02 928.483,2571.45 928.18,2571.87C928.134,2571.93 928.087,2571.99 928.041,2572.06C927.885,2572.26 927.728,2572.47 927.569,2572.68C927.377,2572.92 927.182,2573.17 926.987,2573.41C926.722,2573.74 926.456,2574.07 926.192,2574.39C926.046,2574.58 925.9,2574.76 925.758,2574.95C925.704,2575.02 925.651,2575.1 925.599,2575.17C925.549,2575.24 925.5,2575.31 925.456,2575.39L925.451,2575.4L925.449,2575.4C925.439,2575.44 925.429,2575.48 925.418,2575.51C925.351,2575.73 925.277,2575.95 925.202,2576.16C925.102,2576.45 924.999,2576.74 924.896,2577.03C924.609,2577.84 924.317,2578.65 924.029,2579.46C923.935,2579.72 923.841,2579.99 923.748,2580.25C923.629,2580.59 923.511,2580.93 923.396,2581.27C923.349,2581.41 923.302,2581.55 923.258,2581.69C923.228,2581.78 923.197,2581.88 923.173,2581.98L923.171,2581.98L922.985,2582.96L911.956,2582.96L911.769,2581.98C911.764,2581.96 911.758,2581.94 911.752,2581.92C911.723,2581.82 911.691,2581.72 911.659,2581.62C911.611,2581.47 911.561,2581.32 911.51,2581.17C911.405,2580.87 911.297,2580.56 911.189,2580.25C910.837,2579.26 910.478,2578.28 910.122,2577.28C910.037,2577.05 909.952,2576.81 909.868,2576.57C909.799,2576.38 909.729,2576.18 909.662,2575.98C909.597,2575.79 909.532,2575.6 909.477,2575.4C909.467,2575.38 909.456,2575.37 909.445,2575.35C909.371,2575.23 909.288,2575.11 909.203,2575C909.098,2574.86 908.988,2574.72 908.878,2574.58C908.61,2574.24 908.336,2573.9 908.064,2573.56C907.959,2573.43 907.855,2573.3 907.751,2573.17C907.505,2572.86 907.262,2572.55 907.023,2572.24C906.93,2572.11 906.838,2571.99 906.748,2571.87C906.7,2571.8 906.653,2571.74 906.606,2571.67C906.524,2571.55 906.443,2571.44 906.363,2571.32C906.101,2570.93 905.851,2570.53 905.618,2570.13C905.095,2569.21 904.657,2568.25 904.337,2567.25C904.175,2566.74 904.043,2566.22 903.945,2565.7C903.84,2565.14 903.773,2564.58 903.744,2564.02C903.732,2563.79 903.726,2563.57 903.726,2563.34C903.726,2563.23 903.728,2563.11 903.732,2563C903.736,2562.86 903.742,2562.71 903.752,2562.57C903.767,2562.35 903.787,2562.12 903.814,2561.9C903.863,2561.49 903.934,2561.08 904.025,2560.67C904.234,2559.74 904.551,2558.83 904.964,2557.97C905.221,2557.44 905.514,2556.93 905.841,2556.43C906.774,2555.03 907.975,2553.8 909.352,2552.83C910.431,2552.06 911.618,2551.45 912.867,2551.02C913.825,2550.69 914.82,2550.46 915.828,2550.35C916.159,2550.31 916.492,2550.28 916.826,2550.27C916.992,2550.26 917.158,2550.26 917.324,2550.26L917.591,2550.26C917.621,2550.26 917.65,2550.26 917.679,2550.26ZM917.338,2552.66C917.199,2552.66 917.059,2552.66 916.919,2552.67C916.667,2552.68 916.416,2552.7 916.166,2552.72C915.356,2552.81 914.555,2552.99 913.782,2553.24C911.734,2553.93 909.88,2555.19 908.509,2556.86C908.285,2557.13 908.075,2557.41 907.879,2557.7C907.647,2558.05 907.435,2558.41 907.245,2558.78C906.924,2559.41 906.666,2560.07 906.48,2560.74C906.251,2561.58 906.133,2562.45 906.127,2563.31C906.126,2563.53 906.132,2563.74 906.145,2563.96C906.183,2564.6 906.282,2565.24 906.439,2565.87C906.587,2566.45 906.785,2567.03 907.025,2567.59C907.284,2568.18 907.591,2568.76 907.932,2569.32C908.152,2569.68 908.386,2570.03 908.629,2570.37L908.661,2570.41L908.688,2570.45C908.729,2570.51 908.77,2570.56 908.811,2570.62C909.039,2570.92 909.271,2571.22 909.506,2571.52C909.835,2571.94 910.17,2572.35 910.503,2572.76C910.573,2572.85 910.642,2572.94 910.712,2573.02C910.854,2573.2 910.995,2573.38 911.132,2573.57C911.233,2573.7 911.332,2573.84 911.425,2573.99C911.536,2574.16 911.638,2574.33 911.714,2574.52C911.752,2574.62 911.785,2574.71 911.806,2574.81C911.818,2574.85 911.831,2574.89 911.843,2574.93C911.924,2575.18 912.009,2575.42 912.095,2575.67C912.19,2575.94 912.286,2576.2 912.382,2576.47C912.642,2577.2 912.905,2577.92 913.166,2578.65C913.261,2578.92 913.357,2579.18 913.452,2579.45C913.575,2579.8 913.698,2580.15 913.817,2580.5L913.837,2580.56L921.101,2580.56C921.144,2580.43 921.187,2580.31 921.23,2580.18C921.438,2579.58 921.652,2578.98 921.866,2578.38C922.092,2577.74 922.32,2577.11 922.546,2576.48C922.629,2576.24 922.712,2576.01 922.795,2575.78C922.861,2575.59 922.927,2575.4 922.991,2575.21C923.036,2575.08 923.081,2574.95 923.12,2574.81L923.121,2574.81C923.131,2574.77 923.133,2574.76 923.144,2574.72C923.16,2574.67 923.177,2574.61 923.197,2574.56C923.247,2574.43 923.311,2574.3 923.381,2574.18C923.458,2574.05 923.543,2573.92 923.632,2573.79C923.727,2573.66 923.826,2573.52 923.927,2573.39C924.055,2573.22 924.187,2573.06 924.319,2572.89C924.543,2572.61 924.769,2572.34 924.994,2572.06C925.309,2571.67 925.622,2571.27 925.926,2570.87C926.032,2570.73 926.137,2570.59 926.24,2570.45C926.27,2570.41 926.3,2570.37 926.33,2570.33C926.382,2570.25 926.434,2570.18 926.485,2570.11C926.641,2569.88 926.792,2569.65 926.938,2569.42C927.408,2568.66 927.816,2567.87 928.127,2567.03C928.291,2566.59 928.428,2566.14 928.534,2565.68C928.64,2565.22 928.715,2564.76 928.758,2564.29C928.787,2563.97 928.801,2563.66 928.801,2563.35C928.801,2563.17 928.795,2563 928.786,2562.83C928.762,2562.39 928.709,2561.95 928.627,2561.52C928.488,2560.78 928.264,2560.06 927.965,2559.38C927.79,2558.97 927.589,2558.58 927.365,2558.21C927.186,2557.9 926.991,2557.61 926.783,2557.33C925.465,2555.53 923.608,2554.16 921.526,2553.38C920.678,2553.06 919.793,2552.85 918.895,2552.74C918.599,2552.7 918.302,2552.68 918.005,2552.67C917.868,2552.66 917.731,2552.66 917.594,2552.66C917.509,2552.66 917.424,2552.66 917.338,2552.66ZM923.116,2574.83L923.111,2574.86L923.119,2574.82C923.118,2574.82 923.117,2574.83 923.116,2574.83ZM911.815,2574.86C911.812,2574.84 911.812,2574.84 911.807,2574.82C911.81,2574.83 911.812,2574.84 911.815,2574.86Z" style="fill-rule:nonzero;"/>
            </g>
            <g transform="matrix(1.07128,0,0,1.16361,-64.1103,-420.653)">
                <rect x="911.194" y="2581.74" width="10.145" height="2.092" style="fill-rule:nonzero;"/>
            </g>
            <g transform="matrix(1.07128,0,0,1.16361,-64.1103,-416.687)">
                <rect x="911.194" y="2581.74" width="10.145" height="2.092" style="fill-rule:nonzero;"/>
            </g>
        </g>
    </g>
</svg>
