<?xml version="1.0" encoding="utf-8"?>
<!-- Generator: Adobe Illustrator 19.2.1, SVG Export Plug-In . SVG Version: 6.00 Build 0)  -->
<svg version="1.1" id="Capa_1" xmlns="http://www.w3.org/2000/svg" xmlns:xlink="http://www.w3.org/1999/xlink" x="0px" y="0px"
	 viewBox="0 0 792 612" style="enable-background:new 0 0 792 612;" xml:space="preserve">
<g transform="matrix(1.00927,0,0,1.00927,-15.3784,-2357.48)">
	<g>
		<path d="M407.6,2359.2c37.8,0,74.4,7.4,108.9,22c33.3,14.1,63.2,34.3,88.9,60c25.7,25.7,45.9,55.6,60,88.9
			c14.6,34.5,22,71.1,22,108.9c0,37.8-7.4,74.4-22,108.9c-14.1,33.3-34.3,63.2-60,88.9c-25.7,25.7-55.6,45.9-88.9,60
			c-34.5,14.6-71.1,22-108.9,22s-74.4-7.4-108.9-22c-33.3-14.1-63.2-34.3-88.9-60c-25.7-25.7-45.9-55.6-60-88.9
			c-14.6-34.5-22-71.1-22-108.9c0-37.8,7.4-74.4,22-108.9c14.1-33.3,34.3-63.2,60-88.9c25.7-25.7,55.6-45.9,88.9-60
			C333.2,2366.6,369.8,2359.2,407.6,2359.2 M407.6,2339.4c-165.4,0-299.5,134.1-299.5,299.5c0,165.4,134.1,299.5,299.5,299.5
			s299.5-134.1,299.5-299.5C707.1,2473.5,573,2339.4,407.6,2339.4L407.6,2339.4z"/>
	</g>
</g>
<g transform="matrix(1.02713,0,0,1.02713,-692.358,-2388.94)">
	<g transform="matrix(1.01369,0,0,1.01369,-12.5575,-36.6525)">
		<path d="M1059.1,2487.1c1.1,0,2.3,0,3.4,0.1c2.1,0.1,4.1,0.3,6.1,0.5c6.6,0.7,13.1,2.2,19.4,4.4c9.4,3.2,18.4,7.9,26.3,14
			c5.2,3.8,10,8.3,14.2,13.2c4.6,5.3,8.6,11.1,11.9,17.3c2.9,5.5,5.1,11.4,6.7,17.3c1.3,5,2.2,10.2,2.6,15.5
			c0.1,1.9,0.2,3.8,0.2,5.7c0,5.5-0.5,11-1.6,16.3c-1.2,6.1-3,12-5.4,17.7c-2.1,5-4.7,9.9-7.5,14.6c-1.8,3-3.8,5.8-5.8,8.7
			c-0.3,0.4-0.6,0.8-0.9,1.3c-1,1.3-2.1,2.8-3.2,4.2c-1.3,1.6-2.6,3.3-3.9,4.9c-1.8,2.2-3.6,4.4-5.3,6.6c-1,1.3-2,2.5-2.9,3.8
			c-0.4,0.5-0.7,1-1.1,1.5c-0.3,0.5-0.7,0.9-1,1.5l0,0.1h0c-0.1,0.3-0.1,0.5-0.2,0.7c-0.5,1.5-0.9,3-1.5,4.4
			c-0.7,1.9-1.4,3.9-2.1,5.8c-1.9,5.4-3.9,10.9-5.8,16.3c-0.6,1.7-1.3,3.6-1.9,5.3c-0.8,2.3-1.6,4.6-2.4,6.9
			c-0.3,0.9-0.6,1.9-0.9,2.8c-0.2,0.6-0.4,1.3-0.6,1.9h0l-1.3,6.6h-74.1l-1.3-6.6c0-0.1-0.1-0.3-0.1-0.4c-0.2-0.7-0.4-1.3-0.6-2
			c-0.3-1-0.7-2-1-3c-0.7-2-1.4-4.1-2.2-6.2c-2.4-6.7-4.8-13.2-7.2-20c-0.6-1.5-1.1-3.2-1.7-4.8c-0.5-1.3-0.9-2.6-1.4-4
			c-0.4-1.3-0.9-2.6-1.2-3.9c-0.1-0.1-0.1-0.2-0.2-0.3c-0.5-0.8-1.1-1.6-1.6-2.4c-0.7-0.9-1.4-1.9-2.2-2.8c-1.8-2.3-3.6-4.6-5.5-6.9
			c-0.7-0.9-1.4-1.7-2.1-2.6c-1.7-2.1-3.3-4.2-4.9-6.3c-0.6-0.9-1.2-1.7-1.8-2.5c-0.3-0.5-0.6-0.9-1-1.3c-0.6-0.8-1.1-1.5-1.6-2.4
			c-1.8-2.6-3.4-5.3-5-8c-3.5-6.2-6.5-12.6-8.6-19.4c-1.1-3.4-2-6.9-2.6-10.4c-0.7-3.8-1.2-7.5-1.4-11.3c-0.1-1.5-0.1-3-0.1-4.6
			c0-0.7,0-1.5,0-2.3c0-0.9,0.1-1.9,0.1-2.9c0.1-1.5,0.2-3,0.4-4.5c0.3-2.8,0.8-5.5,1.4-8.3c1.4-6.3,3.5-12.4,6.3-18.2
			c1.7-3.6,3.7-7,5.9-10.4c6.3-9.4,14.3-17.7,23.6-24.2c7.3-5.2,15.2-9.3,23.6-12.2c6.4-2.2,13.1-3.8,19.9-4.5
			c2.2-0.3,4.5-0.5,6.7-0.5c1.1-0.1,2.2-0.1,3.3-0.1h1.8C1058.7,2487.1,1058.9,2487.1,1059.1,2487.1z M1056.8,2503.2
			c-0.9,0-1.9,0-2.8,0.1c-1.7,0.1-3.4,0.2-5.1,0.3c-5.4,0.6-10.8,1.8-16,3.5c-13.8,4.6-26.2,13.1-35.5,24.3
			c-1.5,1.8-2.9,3.7-4.2,5.6c-1.6,2.4-3,4.8-4.3,7.3c-2.2,4.2-3.9,8.7-5.1,13.2c-1.5,5.6-2.3,11.5-2.4,17.3c0,1.5,0,2.9,0.1,4.4
			c0.3,4.3,0.9,8.6,2,12.8c1,3.9,2.3,7.8,3.9,11.6c1.7,4,3.8,7.9,6.1,11.6c1.5,2.4,3.1,4.8,4.7,7.1l0.2,0.3l0.2,0.3
			c0.3,0.4,0.6,0.7,0.8,1.1c1.5,2,3.1,4,4.7,6c2.2,2.8,4.5,5.6,6.7,8.3c0.5,0.6,0.9,1.2,1.4,1.7c1,1.2,1.9,2.4,2.8,3.7
			c0.7,0.9,1.3,1.8,2,2.8c0.7,1.1,1.4,2.3,1.9,3.6c0.3,0.7,0.5,1.3,0.6,1.9c0.1,0.3,0.2,0.5,0.2,0.8c0.5,1.7,1.1,3.3,1.7,5
			c0.6,1.8,1.3,3.6,1.9,5.4c1.7,4.9,3.5,9.7,5.3,14.7c0.6,1.8,1.3,3.6,1.9,5.4c0.8,2.4,1.7,4.7,2.5,7.1l0.1,0.4h48.8
			c0.3-0.9,0.6-1.7,0.9-2.6c1.4-4,2.8-8.1,4.3-12.1c1.5-4.3,3.1-8.5,4.6-12.8c0.6-1.6,1.1-3.2,1.7-4.7c0.4-1.3,0.9-2.6,1.3-3.8
			c0.3-0.9,0.6-1.7,0.9-2.7h0c0.1-0.3,0.1-0.3,0.2-0.6c0.1-0.3,0.2-0.7,0.4-1.1c0.3-0.9,0.8-1.7,1.2-2.6c0.5-0.9,1.1-1.7,1.7-2.6
			c0.6-0.9,1.3-1.8,2-2.7c0.9-1.1,1.7-2.2,2.6-3.4c1.5-1.9,3-3.7,4.5-5.6c2.1-2.6,4.2-5.3,6.3-8c0.7-0.9,1.4-1.9,2.1-2.8
			c0.2-0.3,0.4-0.5,0.6-0.8c0.3-0.5,0.7-1,1-1.5c1-1.5,2.1-3.1,3-4.6c3.2-5.1,5.9-10.4,8-16.1c1.1-3,2-6,2.7-9.1
			c0.7-3.1,1.2-6.2,1.5-9.3c0.2-2.2,0.3-4.2,0.3-6.3c0-1.2,0-2.4-0.1-3.5c-0.2-3-0.5-5.9-1.1-8.8c-0.9-5-2.4-9.8-4.5-14.4
			c-1.2-2.8-2.5-5.4-4-7.9c-1.2-2.1-2.5-4-3.9-5.9c-8.9-12.1-21.3-21.3-35.3-26.6c-5.7-2.2-11.7-3.6-17.7-4.3c-2-0.3-4-0.4-6-0.5
			c-0.9-0.1-1.8-0.1-2.8-0.1C1058,2503.2,1057.4,2503.2,1056.8,2503.2z M1095.7,2652.3l0,0.2L1095.7,2652.3
			C1095.7,2652.2,1095.7,2652.3,1095.7,2652.3z M1019.7,2652.5c0-0.1,0-0.1-0.1-0.3C1019.7,2652.3,1019.7,2652.3,1019.7,2652.5z"/>
	</g>
	<g transform="matrix(1.07128,0,0,1.16361,-64.1103,-420.653)">
		<rect x="1014.9" y="2698.7" width="68.2" height="14.1"/>
	</g>
	<g transform="matrix(1.07128,0,0,1.16361,-64.1103,-416.687)">
		<rect x="1014.9" y="2718.2" width="68.2" height="14.1"/>
	</g>
</g>
</svg>
