<svg xmlns="http://www.w3.org/2000/svg" viewBox="0 0 500 500" fill-rule="evenodd" clip-rule="evenodd" stroke-linejoin="round" stroke-miterlimit="1.414"><circle cx="262.94" cy="2583.52" r="44.556" fill="#fedf01" transform="translate(-1207.618 -14071.868) scale(5.54353)"/><path d="M251.229 133.13c.96 0 1.922 0 2.882.058 1.745.057 3.489.228 5.227.4a77.783 77.783 0 0 1 16.5 3.717c8.029 2.745 15.623 6.748 22.406 11.895a75.776 75.776 0 0 1 12.095 11.21c3.935 4.517 7.343 9.435 10.105 14.754a72.699 72.699 0 0 1 5.736 14.755 70.222 70.222 0 0 1 2.202 13.153c.12 1.601.183 3.26.183 4.861 0 4.69-.44 9.322-1.327 13.897a77.956 77.956 0 0 1-4.603 15.098c-1.807 4.289-3.975 8.406-6.411 12.41a121.876 121.876 0 0 1-4.941 7.377c-.263.343-.532.686-.795 1.086-.892 1.144-1.79 2.345-2.7 3.546-1.097 1.373-2.213 2.802-3.328 4.175a549.589 549.589 0 0 1-4.546 5.604c-.835 1.087-1.67 2.116-2.482 3.203-.31.4-.612.858-.91 1.258-.286.4-.566.8-.817 1.258l-.029.057h-.011c-.058.23-.115.458-.178.63a83.238 83.238 0 0 1-1.235 3.717 545.997 545.997 0 0 1-1.75 4.975c-1.641 4.632-3.311 9.265-4.958 13.897-.538 1.487-1.075 3.031-1.607 4.518a586.99 586.99 0 0 0-2.013 5.833c-.269.8-.538 1.601-.79 2.402a20.314 20.314 0 0 0-.486 1.659h-.011l-1.064 5.604H218.5l-1.07-5.604a7.706 7.706 0 0 0-.097-.344 65.63 65.63 0 0 0-.531-1.715c-.275-.858-.56-1.716-.853-2.574-.6-1.715-1.218-3.488-1.835-5.261-2.013-5.662-4.066-11.266-6.102-16.985a251.481 251.481 0 0 1-1.453-4.06c-.395-1.087-.795-2.23-1.178-3.375-.372-1.086-.744-2.173-1.058-3.317-.057-.114-.12-.171-.183-.286a23.44 23.44 0 0 0-1.384-2.001c-.6-.8-1.23-1.601-1.859-2.402-1.532-1.944-3.1-3.889-4.655-5.833a832.71 832.71 0 0 1-1.79-2.23 482.41 482.41 0 0 1-4.163-5.32c-.532-.743-1.058-1.429-1.573-2.115-.274-.4-.543-.744-.812-1.144-.469-.686-.932-1.315-1.39-2.002a125.756 125.756 0 0 1-4.26-6.805c-2.991-5.261-5.496-10.751-7.326-16.47a75.617 75.617 0 0 1-2.242-8.865 72.399 72.399 0 0 1-1.15-9.607 73.546 73.546 0 0 1-.102-3.889c0-.63.011-1.315.034-1.944.023-.801.057-1.659.114-2.46.086-1.258.2-2.573.355-3.831a71.47 71.47 0 0 1 1.207-7.034 72.459 72.459 0 0 1 5.37-15.441 79.198 79.198 0 0 1 5.015-8.807 78.653 78.653 0 0 1 20.08-20.588 78.801 78.801 0 0 1 20.1-10.351c5.48-1.888 11.17-3.203 16.934-3.832 1.893-.229 3.798-.4 5.708-.457.95-.058 1.899-.058 2.848-.058h2.03zm-1.95 13.726c-.795 0-1.596 0-2.396.057-1.441.057-2.877.171-4.307.286-4.632.514-9.213 1.544-13.633 2.974-11.713 3.946-22.315 11.151-30.156 20.702a61.132 61.132 0 0 0-3.603 4.804 64.56 64.56 0 0 0-3.626 6.176 60.296 60.296 0 0 0-4.374 11.209 57.6 57.6 0 0 0-2.02 14.697 57.61 57.61 0 0 0 .104 3.718c.217 3.66.783 7.32 1.681 10.923a67.391 67.391 0 0 0 3.351 9.836c1.482 3.374 3.237 6.691 5.187 9.894a100.212 100.212 0 0 0 3.986 6.005l.183.228.155.23c.234.342.469.628.703.971a444.898 444.898 0 0 0 3.975 5.147c1.881 2.402 3.797 4.747 5.702 7.092.4.514.794 1.029 1.195 1.487a90.91 90.91 0 0 1 2.402 3.145 27.778 27.778 0 0 1 1.675 2.402c.635.972 1.218 1.944 1.653 3.03.217.573.406 1.087.526 1.66.069.228.143.457.212.686.463 1.43.95 2.802 1.44 4.232.544 1.544 1.093 3.03 1.642 4.575 1.487 4.174 2.991 8.292 4.484 12.467.543 1.544 1.092 3.03 1.635 4.575a610.963 610.963 0 0 1 2.088 6.005l.114.343H270.8c.246-.744.492-1.43.738-2.173 1.19-3.432 2.413-6.863 3.637-10.294 1.292-3.66 2.596-7.263 3.889-10.866.474-1.373.95-2.688 1.424-4.003.377-1.087.755-2.174 1.12-3.26a37.92 37.92 0 0 0 .738-2.288h.006c.057-.228.069-.286.132-.514.091-.286.188-.63.303-.915a15.28 15.28 0 0 1 1.052-2.174c.44-.743.926-1.486 1.435-2.23.544-.743 1.11-1.544 1.687-2.287.732-.973 1.487-1.888 2.242-2.86 1.281-1.601 2.574-3.145 3.86-4.747a293.779 293.779 0 0 0 5.33-6.805 199.7 199.7 0 0 0 1.796-2.402l.515-.686c.297-.458.595-.858.886-1.258a155.37 155.37 0 0 0 2.59-3.946c2.689-4.347 5.022-8.865 6.8-13.668a61.888 61.888 0 0 0 2.328-7.72 59.308 59.308 0 0 0 1.281-7.95c.166-1.83.246-3.603.246-5.376 0-1.03-.034-2.001-.086-2.974a56.535 56.535 0 0 0-.909-7.491 56.257 56.257 0 0 0-3.786-12.239 53.21 53.21 0 0 0-3.431-6.69 52.13 52.13 0 0 0-3.328-5.033c-7.538-10.294-18.158-18.13-30.065-22.59-4.85-1.83-9.91-3.03-15.046-3.66-1.693-.229-3.391-.343-5.09-.4-.783-.057-1.567-.057-2.35-.057h-1.464zm33.043 126.787l-.028.171.046-.229c-.006 0-.012.058-.018.058zm-64.628.171c-.018-.114-.018-.114-.046-.229.017.058.028.115.046.23zm1.655 56.576h61.314v13.733h-61.314zm0 22.374h61.314v13.733h-61.314z" fill-rule="nonzero"/></svg>