<?xml version="1.0" encoding="UTF-8" standalone="no"?>
<!DOCTYPE svg PUBLIC "-//W3C//DTD SVG 1.1//EN" "http://www.w3.org/Graphics/SVG/1.1/DTD/svg11.dtd">
<svg xmlns="http://www.w3.org/2000/svg" xmlns:xlink="http://www.w3.org/1999/xlink" width="100%" height="100%" viewBox="0 0 500 500" version="1.1" xml:space="preserve" style="fill-rule:evenodd;clip-rule:evenodd;stroke-linejoin:round;stroke-miterlimit:1.41421;">
    <g transform="matrix(5.49261,0,0,5.49261,-4789.78,-14824.8)">
        <g transform="matrix(1.00927,0,0,1.00927,652.178,137.082)">
            <circle cx="262.94" cy="2583.52" r="44.556" style="fill:rgb(254,223,1);"/>
        </g>
        <g transform="matrix(0.0763596,-0.0763596,0.0881511,0.0881511,903.982,2746.16)">
            <path d="M151.493,90.549C152.454,91.402 153.394,92.271 154.303,93.165C156.001,94.835 157.601,96.581 159.097,98.39C165.022,105.554 169.31,113.703 171.826,122.236C173.035,126.338 173.837,130.53 174.233,134.75C174.41,136.632 174.497,138.518 174.522,140.407C174.599,158.663 174.568,176.919 174.51,195.175C174.487,197.585 174.351,199.992 174.077,202.391C173.529,207.183 172.459,211.931 170.864,216.545C168.975,222.008 166.351,227.283 163.019,232.203C158.45,238.952 152.542,245.035 145.509,249.956C142.323,252.185 138.912,254.173 135.317,255.871C131.188,257.822 126.818,259.389 122.299,260.517C118.567,261.448 114.736,262.079 110.87,262.396C109.054,262.545 107.232,262.619 105.408,262.636C100.688,262.651 95.969,262.668 91.249,262.653C89.271,262.635 87.296,262.547 85.329,262.373C81.61,262.042 77.926,261.421 74.335,260.522C69.806,259.388 65.429,257.814 61.293,255.857C57.689,254.152 54.269,252.158 51.075,249.923C44.022,244.988 38.089,238.893 33.495,232.13C30.147,227.201 27.505,221.917 25.602,216.443C23.996,211.823 22.916,207.067 22.363,202.267C22.086,199.865 21.949,197.454 21.926,195.041C21.869,177.014 21.925,158.987 21.925,140.96C21.933,138.898 22.02,136.839 22.209,134.783C22.596,130.585 23.382,126.413 24.568,122.329C26.014,117.349 28.056,112.497 30.678,107.891C34.434,101.294 39.385,95.197 45.398,89.997C47.459,88.214 49.643,86.539 51.938,84.987C52.994,84.273 54.075,83.59 55.174,82.927L68.402,99.385C68.065,99.588 68.066,99.588 67.731,99.793C67.418,99.989 67.418,99.989 67.107,100.187C66.379,100.658 65.664,101.142 64.966,101.646C63.648,102.599 62.389,103.614 61.194,104.682C54.011,111.095 49.166,119.324 46.803,127.99C46.051,130.748 45.547,133.556 45.286,136.381C45.158,137.77 45.095,139.162 45.077,140.555C45.002,158.68 45.019,176.806 45.076,194.931C45.09,196.404 45.16,197.876 45.301,199.345C45.574,202.189 46.095,205.015 46.87,207.788C49.237,216.265 53.996,224.3 60.979,230.62C62.639,232.122 64.421,233.523 66.317,234.8C68.383,236.19 70.583,237.432 72.896,238.493C75.484,239.679 78.213,240.636 81.033,241.323C83.21,241.854 85.439,242.223 87.69,242.423C88.929,242.533 90.173,242.588 91.418,242.6C96.122,242.615 100.826,242.625 105.53,242.58C106.775,242.56 108.017,242.498 109.255,242.381C111.499,242.168 113.722,241.788 115.891,241.246C118.696,240.546 121.409,239.579 123.981,238.383C126.275,237.316 128.456,236.068 130.502,234.673C132.379,233.393 134.142,231.989 135.783,230.484C142.539,224.289 147.152,216.464 149.497,208.215C150.312,205.349 150.857,202.425 151.137,199.484C151.266,198.119 151.335,196.752 151.357,195.384C151.531,177.108 151.449,158.831 151.371,140.555C151.354,139.159 151.289,137.765 151.159,136.374C150.881,133.411 150.331,130.468 149.507,127.583C146.963,118.682 141.759,110.278 134.13,103.873C132.798,102.756 131.395,101.701 129.926,100.722C129.191,100.232 128.438,99.765 127.673,99.31L140.772,82.775C142.526,83.818 144.231,84.919 145.874,86.09C147.534,87.275 149.124,88.527 150.663,89.829C151.08,90.188 151.079,90.187 151.493,90.549Z" style="fill-rule:nonzero;"/>
        </g>
        <g transform="matrix(-0.0763596,0.0763596,-0.0881511,-0.0881511,930.739,2742.91)">
            <path d="M45.182,245.311C44.351,244.581 43.536,243.839 42.744,243.078C40.952,241.357 39.266,239.552 37.691,237.677C31.751,230.601 27.422,222.541 24.833,214.09C23.563,209.943 22.709,205.7 22.272,201.426C22.054,199.302 21.946,197.173 21.926,195.041C21.868,177.014 21.925,158.987 21.925,140.96C21.933,138.898 22.02,136.839 22.209,134.783C22.596,130.585 23.382,126.414 24.568,122.329C26.063,117.18 28.195,112.169 30.947,107.424C34.668,101.006 39.528,95.074 45.398,89.997C47.459,88.214 49.643,86.539 51.938,84.987C52.994,84.273 54.075,83.59 55.174,82.927L68.402,99.385C68.065,99.588 68.066,99.588 67.732,99.793C67.418,99.989 67.418,99.989 67.107,100.187C66.379,100.658 65.663,101.142 64.966,101.646C63.648,102.6 62.389,103.615 61.194,104.682C54.011,111.095 49.165,119.324 46.803,127.99C46.051,130.748 45.547,133.556 45.286,136.381C45.158,137.77 45.095,139.162 45.077,140.555C45,158.68 45.018,176.805 45.076,194.93C45.089,196.3 45.15,197.668 45.272,199.033C45.536,201.982 46.067,204.913 46.87,207.788C49.237,216.265 53.995,224.3 60.978,230.619C62.639,232.122 64.422,233.523 66.318,234.8C68.383,236.191 70.583,237.433 72.896,238.493C75.484,239.679 78.214,240.636 81.033,241.323C83.21,241.854 85.44,242.224 87.69,242.423C88.929,242.533 90.173,242.588 91.418,242.6C96.122,242.615 100.826,242.624 105.53,242.58C106.775,242.56 108.017,242.498 109.255,242.381C111.499,242.168 113.722,241.788 115.891,241.246C118.696,240.546 121.409,239.579 123.981,238.383C126.275,237.316 128.456,236.069 130.501,234.674C132.378,233.393 134.142,231.989 135.783,230.485C142.618,224.216 147.259,216.282 149.579,207.924C150.377,205.05 150.903,202.119 151.165,199.172C151.287,197.805 151.347,196.435 151.36,195.065C151.418,176.895 151.449,158.724 151.371,140.555C151.354,139.159 151.289,137.765 151.158,136.373C150.881,133.411 150.331,130.468 149.507,127.583C146.963,118.682 141.758,110.278 134.13,103.873C132.798,102.756 131.396,101.701 129.926,100.722C129.191,100.232 128.438,99.765 127.673,99.31L140.772,82.775C141.883,83.435 142.976,84.116 144.044,84.828C146.055,86.169 147.983,87.604 149.819,89.121C155.265,93.621 159.899,98.842 163.611,104.51C166.427,108.81 168.714,113.368 170.449,118.078C172.244,122.952 173.447,127.987 174.055,133.076C174.256,134.756 174.392,136.442 174.463,138.131C174.496,138.889 174.512,139.648 174.522,140.407C174.599,158.663 174.569,176.919 174.51,195.175C174.487,197.585 174.351,199.992 174.077,202.391C173.529,207.183 172.459,211.931 170.864,216.545C168.975,222.008 166.351,227.283 163.019,232.203C158.449,238.953 152.541,245.035 145.508,249.956C142.323,252.185 138.912,254.172 135.317,255.871C131.188,257.822 126.818,259.389 122.299,260.517C118.712,261.412 115.034,262.029 111.321,262.357C109.355,262.531 107.383,262.618 105.408,262.636C100.688,262.651 95.969,262.668 91.249,262.653C89.725,262.639 88.203,262.586 86.684,262.48C83.691,262.271 80.715,261.875 77.787,261.295C70.169,259.787 62.911,257.035 56.398,253.301C53.951,251.898 51.608,250.359 49.383,248.701C48.267,247.869 47.184,247.006 46.125,246.12C45.809,245.851 45.494,245.582 45.182,245.311Z" style="fill-rule:nonzero;"/>
        </g>
        <g transform="matrix(0.707107,-0.707107,0.707107,0.707107,-2000.11,1828.63)">
            <path d="M1416.57,2720.09L1414.07,2720.09L1414.07,2700.91L1416.57,2700.91C1416.57,2707.3 1416.57,2713.69 1416.57,2720.09Z" style="fill-rule:nonzero;"/>
        </g>
    </g>
</svg>
