<svg xmlns="http://www.w3.org/2000/svg" viewBox="0 0 792 612"><path d="M396.025 23.64c38.15 0 75.09 7.469 109.91 22.204 33.608 14.23 63.786 34.618 89.724 60.556 25.938 25.938 46.325 56.116 60.556 89.724 14.735 34.82 22.204 71.76 22.204 109.91s-7.469 75.09-22.204 109.91c-14.23 33.608-34.618 63.785-60.556 89.723-25.938 25.939-56.116 46.326-89.724 60.557-34.82 14.735-71.76 22.204-109.91 22.204s-75.09-7.47-109.91-22.204c-33.608-14.231-63.785-34.618-89.723-60.557-25.939-25.938-46.326-56.115-60.557-89.724-14.735-34.82-22.203-71.759-22.203-109.91s7.468-75.089 22.203-109.909c14.231-33.608 34.618-63.786 60.557-89.724 25.938-25.938 56.115-46.325 89.724-60.556 34.82-14.735 71.759-22.204 109.91-22.204m0-19.983C229.091 3.657 93.748 139 93.748 305.933s135.343 302.276 302.276 302.276 302.277-135.343 302.277-302.276S562.959 3.657 396.025 3.657z"/><path d="M436.169 292.646a55.373 55.373 0 0 1 8.548.744c7.287 1.21 14.316 3.824 20.666 7.594a63.99 63.99 0 0 1 8.65 6.176 63.173 63.173 0 0 1 3.496 3.205 7249.952 7249.952 0 0 1 32.45 32.465 70.579 70.579 0 0 1 4.053 4.496 63.624 63.624 0 0 1 6.743 10.042 60.093 60.093 0 0 1 5.258 13.306c1.658 6.347 2.232 12.983 1.538 19.513a49.52 49.52 0 0 1-1.723 8.74c-.968 3.277-2.27 6.448-3.93 9.43a44.698 44.698 0 0 1-4.755 6.976 46.862 46.862 0 0 1-2.66 2.943c-2.413 2.43-4.832 4.867-7.261 7.279a45.639 45.639 0 0 1-9.943 7.422 46.664 46.664 0 0 1-9.465 3.928 50.733 50.733 0 0 1-8.763 1.729c-6.546.692-13.207.125-19.569-1.518a60.168 60.168 0 0 1-13.354-5.245 62.74 62.74 0 0 1-10.066-6.736 63.029 63.029 0 0 1-4.505-4.063c-10.715-10.653-21.368-21.367-32.052-32.051a68.774 68.774 0 0 1-3.513-3.804 63.119 63.119 0 0 1-6.164-8.592 61.177 61.177 0 0 1-5.421-11.698c-1.982-5.846-3.053-11.986-3.045-18.164.003-2.12.13-4.221.389-6.33a47.74 47.74 0 0 1 .448-2.882l16.538 2.961c-.052.3-.052.3-.106.582l-.091.55a39.57 39.57 0 0 0-.236 1.963 35.39 35.39 0 0 0-.141 3.738c.11 7.488 2.496 14.852 6.43 21.197a46.743 46.743 0 0 0 4.192 5.751c.751.889 1.55 1.748 2.37 2.584a7124.535 7124.535 0 0 0 32.228 32.228c.88.865 1.791 1.7 2.733 2.504a46.345 46.345 0 0 0 5.809 4.205c6.238 3.81 13.442 6.127 20.777 6.284a35.794 35.794 0 0 0 5.219-.264 33.32 33.32 0 0 0 5.56-1.189 29.582 29.582 0 0 0 5.853-2.502 27.576 27.576 0 0 0 4.073-2.768 32.645 32.645 0 0 0 2.022-1.811 702.242 702.242 0 0 0 7.238-7.256 32.39 32.39 0 0 0 1.794-2.023 28.785 28.785 0 0 0 2.736-4.076 30.146 30.146 0 0 0 2.461-5.846c.542-1.81.924-3.674 1.15-5.54.204-1.72.284-3.457.225-5.196-.2-7.134-2.479-14.147-6.156-20.237a46.605 46.605 0 0 0-4.334-6.014 52.392 52.392 0 0 0-2.319-2.548c-10.742-10.925-21.613-21.704-32.485-32.5a53.895 53.895 0 0 0-2.584-2.37 47.247 47.247 0 0 0-6.057-4.362c-6.577-3.966-14.23-6.274-21.947-6.156a36.686 36.686 0 0 0-4.03.292c-.665.084-1.327.2-1.99.316l-3.075-16.53a50.519 50.519 0 0 1 4.585-.653c1.56-.15 3.11-.22 4.671-.246.411.03.411.03.837.027zM316.045 172.723c.86.004 1.72.025 2.574.07a57.78 57.78 0 0 1 5.796.603c7.243 1.15 14.243 3.705 20.579 7.384a63.205 63.205 0 0 1 8.815 6.188 63.295 63.295 0 0 1 3.957 3.606c10.714 10.653 21.368 21.368 32.052 32.052a68.774 68.774 0 0 1 3.513 3.803 63.119 63.119 0 0 1 6.164 8.592 61.332 61.332 0 0 1 5.557 12.109c1.89 5.708 2.91 11.722 2.91 17.753a52.727 52.727 0 0 1-.39 6.33 47.74 47.74 0 0 1-.448 2.882l-16.538-2.961c.052-.3.052-.3.106-.582l.091-.55a39.57 39.57 0 0 0 .236-1.963 35.39 35.39 0 0 0 .141-3.738c-.111-7.487-2.497-14.851-6.422-21.205a46.743 46.743 0 0 0-4.193-5.75 47.203 47.203 0 0 0-2.37-2.584 7124.535 7124.535 0 0 0-32.228-32.228 52.349 52.349 0 0 0-2.532-2.334 47.081 47.081 0 0 0-6.01-4.375c-6.238-3.81-13.441-6.127-20.77-6.292a36.839 36.839 0 0 0-5.218.264c-1.89.233-3.751.631-5.56 1.189a29.843 29.843 0 0 0-5.853 2.502 27.576 27.576 0 0 0-4.073 2.768 32.645 32.645 0 0 0-2.022 1.811 702.242 702.242 0 0 0-7.238 7.256 32.39 32.39 0 0 0-1.794 2.023 28.785 28.785 0 0 0-2.736 4.076 30.146 30.146 0 0 0-2.461 5.846 33.443 33.443 0 0 0-1.15 5.54 35.47 35.47 0 0 0-.225 5.196c.199 7.224 2.524 14.314 6.294 20.451a46.695 46.695 0 0 0 4.366 6 51.84 51.84 0 0 0 2.334 2.533 7183.097 7183.097 0 0 0 32.3 32.315 53.895 53.895 0 0 0 2.584 2.37 47.247 47.247 0 0 0 6.057 4.362c6.577 3.966 14.23 6.274 21.947 6.156a36.686 36.686 0 0 0 4.03-.292c.665-.083 1.327-.2 1.99-.316l3.075 16.53c-.96.185-1.923.337-2.896.463a51.466 51.466 0 0 1-5.51.416c-5.466.123-10.943-.588-16.203-2.046a60.723 60.723 0 0 1-11.552-4.526 61.734 61.734 0 0 1-10.733-7.038 55.43 55.43 0 0 1-3.203-2.791c-.465-.434-.922-.876-1.38-1.318a7249.952 7249.952 0 0 1-32.45-32.465 70.579 70.579 0 0 1-4.053-4.497 63.624 63.624 0 0 1-6.743-10.041 60.093 60.093 0 0 1-5.258-13.307c-1.658-6.346-2.232-12.983-1.538-19.513a49.922 49.922 0 0 1 1.723-8.739c.968-3.277 2.27-6.449 3.93-9.431a45.52 45.52 0 0 1 7.415-9.935c2.411-2.43 4.83-4.867 7.26-7.279.788-.77 1.6-1.53 2.45-2.238a45.298 45.298 0 0 1 5.272-3.861c4.8-3.02 10.157-5.115 15.714-6.247a51.06 51.06 0 0 1 6.328-.88 52.066 52.066 0 0 1 3.206-.139c.346.025.665.023.984.022z"/><path d="M445.773 344.978l-11.88 11.88-91.216-91.217 11.88-11.88 91.216 91.217z"/></svg>