<svg xmlns="http://www.w3.org/2000/svg" viewBox="0 0 500 500" fill-rule="evenodd" clip-rule="evenodd" stroke-linejoin="round" stroke-miterlimit="1.414"><circle cx="262.94" cy="2583.52" r="44.556" fill="#fedf01" transform="translate(-1207.62 -14071.862) scale(5.54353)"/><path d="M282.82 239.09a45.526 45.526 0 0 1 6.986.607c5.954.984 11.698 3.13 16.885 6.207a51.537 51.537 0 0 1 7.068 5.05 55.524 55.524 0 0 1 2.86 2.617 5854.441 5854.441 0 0 1 26.513 26.523 54.767 54.767 0 0 1 3.312 3.675 51.505 51.505 0 0 1 5.506 8.2 48.97 48.97 0 0 1 4.29 10.872c1.352 5.184 1.82 10.608 1.253 15.94a40.462 40.462 0 0 1-1.411 7.139 38.277 38.277 0 0 1-3.21 7.709 37.17 37.17 0 0 1-6.059 8.11c-1.972 1.987-3.943 3.975-5.93 5.947a38.54 38.54 0 0 1-2.619 2.347 37.195 37.195 0 0 1-5.507 3.715 38.4 38.4 0 0 1-7.729 3.212 40.707 40.707 0 0 1-7.158 1.412c-5.348.569-10.787.106-15.989-1.242a49.132 49.132 0 0 1-10.905-4.285 51.386 51.386 0 0 1-8.223-5.505 54.275 54.275 0 0 1-3.681-3.315c-8.753-8.705-17.458-17.456-26.186-26.185a55.612 55.612 0 0 1-2.871-3.11 51.918 51.918 0 0 1-5.041-7.02 49.876 49.876 0 0 1-4.428-9.552c-1.619-4.77-2.494-9.798-2.49-14.838 0-1.728.106-3.455.317-5.169.097-.788.22-1.572.36-2.354l13.516 2.42c-.043.24-.042.24-.083.48-.037.225-.037.225-.071.452a28.983 28.983 0 0 0-.304 4.656c.092 6.118 2.045 12.134 5.25 17.321a38.295 38.295 0 0 0 3.426 4.7 41.787 41.787 0 0 0 1.933 2.108 5902.092 5902.092 0 0 0 26.328 26.328 40.49 40.49 0 0 0 2.231 2.043 37.94 37.94 0 0 0 4.746 3.43c5.097 3.111 10.984 5.006 16.972 5.137a29.21 29.21 0 0 0 4.263-.215 26.871 26.871 0 0 0 4.548-.971 24.547 24.547 0 0 0 4.783-2.043 23.374 23.374 0 0 0 4.973-3.737 568.467 568.467 0 0 0 5.91-5.929 23.41 23.41 0 0 0 3.7-4.991 24.495 24.495 0 0 0 2.006-4.78c.446-1.478.756-2.997.939-4.53.167-1.408.227-2.827.186-4.244-.165-5.833-2.02-11.556-5.03-16.534a38.103 38.103 0 0 0-3.54-4.915 41.479 41.479 0 0 0-1.892-2.077c-8.776-8.922-17.66-17.737-26.542-26.553a40.8 40.8 0 0 0-2.113-1.936 37.834 37.834 0 0 0-4.95-3.563c-5.376-3.243-11.627-5.13-17.928-5.03-1.1.017-2.199.095-3.29.237a30.39 30.39 0 0 0-1.628.261l-2.512-13.5c1.24-.23 2.49-.413 3.745-.535a45.34 45.34 0 0 1 3.819-.198h.697zm-98.138-97.98a45.427 45.427 0 0 1 6.838.554c5.917.935 11.635 3.022 16.813 6.028a51.589 51.589 0 0 1 7.206 5.058 54.335 54.335 0 0 1 3.236 2.946c8.753 8.704 17.457 17.456 26.186 26.185a55.612 55.612 0 0 1 2.871 3.11 51.93 51.93 0 0 1 5.041 7.019 49.81 49.81 0 0 1 4.541 9.892c1.547 4.668 2.38 9.579 2.377 14.499a42.517 42.517 0 0 1-.317 5.168c-.097.789-.22 1.573-.36 2.355l-13.517-2.42.084-.48c.037-.226.037-.226.071-.452.078-.533.143-1.068.192-1.604a29.63 29.63 0 0 0 .112-3.052c-.093-6.118-2.044-12.135-5.25-17.321a38.295 38.295 0 0 0-3.426-4.7 41.787 41.787 0 0 0-1.933-2.108 5770.723 5770.723 0 0 0-26.327-26.328 40.722 40.722 0 0 0-2.07-1.904 37.994 37.994 0 0 0-4.908-3.569c-5.097-3.112-10.983-5.006-16.972-5.137a29.213 29.213 0 0 0-4.264.215 26.72 26.72 0 0 0-4.547.971 24.561 24.561 0 0 0-4.783 2.043 23.318 23.318 0 0 0-4.974 3.737 578.102 578.102 0 0 0-5.909 5.928 23.41 23.41 0 0 0-3.7 4.991 24.495 24.495 0 0 0-2.006 4.78 26.595 26.595 0 0 0-.939 4.53 29.073 29.073 0 0 0-.187 4.244c.169 5.902 2.064 11.69 5.137 16.71a38.174 38.174 0 0 0 3.573 4.903c.61.713 1.249 1.401 1.906 2.07a5756.78 5756.78 0 0 0 26.388 26.397 40.481 40.481 0 0 0 2.115 1.936 37.77 37.77 0 0 0 4.948 3.563c5.377 3.243 11.629 5.129 17.93 5.03a28.7 28.7 0 0 0 3.288-.237 30.39 30.39 0 0 0 1.629-.261l2.512 13.5c-.786.146-1.574.275-2.367.378a42.73 42.73 0 0 1-4.5.343c-4.463.106-8.935-.479-13.236-1.666a49.07 49.07 0 0 1-9.437-3.701 51.13 51.13 0 0 1-8.774-5.75 51.897 51.897 0 0 1-3.746-3.353 5811.394 5811.394 0 0 1-26.512-26.523 54.767 54.767 0 0 1-3.313-3.675 51.505 51.505 0 0 1-5.505-8.201 48.97 48.97 0 0 1-4.291-10.872c-1.351-5.185-1.818-10.607-1.251-15.94a40.478 40.478 0 0 1 1.41-7.138 38.277 38.277 0 0 1 3.21-7.71 37.159 37.159 0 0 1 6.059-8.11c1.972-1.986 3.943-3.974 5.93-5.946a37.03 37.03 0 0 1 6.304-4.989c3.925-2.465 8.302-4.176 12.841-5.1a41.551 41.551 0 0 1 5.17-.715 45.634 45.634 0 0 1 3.403-.12z" fill-rule="nonzero"/><path d="M290.616 281.844l-9.71 9.71-74.492-74.492 9.71-9.71 74.492 74.492z" fill-rule="nonzero"/></svg>