<svg id="Capa_1" xmlns="http://www.w3.org/2000/svg" xmlns:xlink="http://www.w3.org/1999/xlink" viewBox="0 0 792 612"><style>.st0{clip-path:url(#SVGID_2_)}</style><path d="M-255.4-257.7c37.8 0 74.4 7.4 108.9 22 33.3 14.1 63.2 34.3 88.9 60 25.7 25.7 45.9 55.6 60 88.9C17-52.4 24.4-15.7 24.4 22S17 96.4 2.4 130.9c-14.1 33.3-34.3 63.2-60 88.9-25.7 25.7-55.6 45.9-88.9 60-34.5 14.6-71.1 22-108.9 22s-74.4-7.4-108.9-22c-33.3-14.1-63.2-34.3-88.9-60-25.7-25.7-45.9-55.6-60-88.9-14.6-34.5-22-71.1-22-108.9s7.4-74.4 22-108.9c14.1-33.3 34.3-63.2 60-88.9 25.7-25.7 55.6-45.9 88.9-60 34.5-14.5 71.2-21.9 108.9-21.9m0-19.8c-165.4 0-299.5 134.1-299.5 299.5s134.1 299.5 299.5 299.5S44.2 187.5 44.2 22-89.9-277.5-255.4-277.5z" transform="translate(653.716 283.739) scale(1.00927)"/><defs><path id="SVGID_1_" d="M225.9 136h336.9v337.8H225.9z"/></defs><clipPath id="SVGID_2_"><use xlink:href="#SVGID_1_" overflow="visible"/></clipPath><path class="st0" d="M545.7 269l-23.7-4c-2.5-8-5.6-15.6-9.5-23l13.9-19.5c5.9-8.3 5-19.6-2.3-26.8l-21-21c-3.9-3.9-9.2-6.1-14.7-6.1-4.4 0-8.5 1.3-12 3.9L457 186.4c-7.6-4-15.6-7.3-23.8-9.8l-3.9-23.4c-1.7-10.1-10.4-17.4-20.6-17.4H379c-10.2 0-18.9 7.3-20.6 17.4l-4.1 23.9c-7.9 2.5-15.6 5.7-22.9 9.6L312 172.8c-3.5-2.5-7.7-3.9-12.1-3.9-5.6 0-10.8 2.2-14.7 6.1l-21.1 21c-7.2 7.2-8.2 18.5-2.3 26.8l14.1 19.8c-3.9 7.4-7 15.1-9.4 23l-23.4 3.9c-10.1 1.7-17.4 10.4-17.4 20.6v29.6c0 10.2 7.3 18.9 17.4 20.6l23.9 4.1c2.5 7.9 5.7 15.6 9.6 22.9L263 386.7c-5.9 8.3-5 19.6 2.3 26.8l21 21c3.9 3.9 9.2 6.1 14.7 6.1 4.4 0 8.5-1.3 12-3.9l19.8-14.1c7.1 3.7 14.6 6.8 22.2 9.2l3.9 23.7c1.7 10.1 10.4 17.4 20.6 17.4h29.7c10.2 0 18.9-7.3 20.6-17.4l4-23.7c8-2.5 15.6-5.6 23-9.5l19.5 13.9c3.5 2.5 7.7 3.9 12.1 3.9 5.6 0 10.8-2.2 14.7-6.1l21-21c7.2-7.2 8.2-18.5 2.3-26.8l-13.9-19.6c3.9-7.4 7.1-15.1 9.5-23l23.7-3.9c10.1-1.7 17.4-10.3 17.4-20.6v-29.6c0-10.1-7.3-18.8-17.4-20.5zm-1.6 50.2c0 .9-.6 1.7-1.5 1.8l-29.6 5c-3.7.6-6.7 3.4-7.6 7-2.7 10.3-6.8 20.3-12.2 29.5-1.9 3.2-1.8 7.3.4 10.3l17.4 24.5c.5.7.4 1.8-.2 2.4l-21 21c-.5.5-1 .6-1.3.6-.4 0-.8-.1-1.1-.4L463 403.5c-3-2.2-7.1-2.3-10.4-.4-9.2 5.5-19.1 9.6-29.5 12.2-3.7.9-6.4 3.9-7 7.6l-5 29.6c-.1.9-.9 1.5-1.8 1.5h-29.6c-.9 0-1.7-.6-1.8-1.5l-4.9-29.6c-.6-3.7-3.4-6.7-7-7.6-10.1-2.6-19.8-6.6-28.9-11.8-1.5-.8-3.2-1.3-4.8-1.3-1.9 0-3.9.6-5.5 1.8l-24.6 17.5c-.4.2-.7.4-1.1.4-.3 0-.8-.1-1.3-.6l-21-21c-.6-.6-.7-1.6-.2-2.4l17.3-24.3c2.2-3.1 2.3-7.2.4-10.4-5.5-9.2-9.7-19.1-12.4-29.4-1-3.6-3.9-6.3-7.6-7l-29.8-5.1c-.9-.1-1.5-.9-1.5-1.8v-29.6c0-.9.6-1.7 1.5-1.8l29.4-4.9c3.7-.6 6.8-3.4 7.7-7 2.6-10.4 6.6-20.3 12-29.6 1.9-3.2 1.7-7.3-.5-10.3L277.6 212c-.5-.7-.4-1.8.2-2.4l21-21c.5-.5 1-.6 1.3-.6.4 0 .8.1 1.1.4l24.3 17.3c3.1 2.2 7.2 2.3 10.4.4 9.2-5.5 19.1-9.7 29.4-12.4 3.6-1 6.3-3.9 7-7.6l5.1-29.8c.1-.9.9-1.5 1.8-1.5h29.6c.9 0 1.7.6 1.8 1.5l4.9 29.4c.6 3.7 3.4 6.8 7 7.7 10.6 2.7 20.8 6.8 30.2 12.4 3.2 1.9 7.3 1.8 10.3-.4l24.3-17.5c.4-.2.7-.4 1.1-.4.3 0 .8.1 1.3.6l21 21c.6.6.7 1.6.2 2.4l-17.4 24.4c-2.2 3-2.3 7.1-.4 10.4 5.5 9.2 9.6 19.1 12.3 29.5.9 3.7 3.9 6.4 7.6 7l29.6 5c.9.1 1.6.9 1.6 1.8l-.1 29.6zm0 0"/><path d="M394.5 231.6c-40.1 0-72.7 32.6-72.7 72.7s32.6 72.7 72.7 72.7 72.7-32.6 72.7-72.7-32.6-72.7-72.7-72.7zm0 126.5c-29.6 0-53.7-24.1-53.7-53.7s24.1-53.7 53.7-53.7 53.7 24.1 53.7 53.7-24.1 53.7-53.7 53.7zm0 0"/></svg>